<?xml version="1.0" standalone="no"?><svg xmlns="http://www.w3.org/2000/svg" viewBox="0 0 1440 320"><path fill="#17E9E0" fill-opacity="1" d="M0,192L6.2,165.3C12.3,139,25,85,37,101.3C49.2,117,62,203,74,208C86.2,213,98,139,111,112C123.1,85,135,107,148,112C160,117,172,107,185,90.7C196.9,75,209,53,222,58.7C233.8,64,246,96,258,112C270.8,128,283,128,295,128C307.7,128,320,128,332,154.7C344.6,181,357,235,369,229.3C381.5,224,394,160,406,128C418.5,96,431,96,443,101.3C455.4,107,468,117,480,106.7C492.3,96,505,64,517,74.7C529.2,85,542,139,554,165.3C566.2,192,578,192,591,176C603.1,160,615,128,628,101.3C640,75,652,53,665,42.7C676.9,32,689,32,702,64C713.8,96,726,160,738,165.3C750.8,171,763,117,775,85.3C787.7,53,800,43,812,53.3C824.6,64,837,96,849,133.3C861.5,171,874,213,886,245.3C898.5,277,911,299,923,261.3C935.4,224,948,128,960,128C972.3,128,985,224,997,224C1009.2,224,1022,128,1034,80C1046.2,32,1058,32,1071,53.3C1083.1,75,1095,117,1108,160C1120,203,1132,245,1145,256C1156.9,267,1169,245,1182,234.7C1193.8,224,1206,224,1218,229.3C1230.8,235,1243,245,1255,261.3C1267.7,277,1280,299,1292,282.7C1304.6,267,1317,213,1329,192C1341.5,171,1354,181,1366,186.7C1378.5,192,1391,192,1403,186.7C1415.4,181,1428,171,1434,165.3L1440,160L1440,320L1433.8,320C1427.7,320,1415,320,1403,320C1390.8,320,1378,320,1366,320C1353.8,320,1342,320,1329,320C1316.9,320,1305,320,1292,320C1280,320,1268,320,1255,320C1243.1,320,1231,320,1218,320C1206.2,320,1194,320,1182,320C1169.2,320,1157,320,1145,320C1132.3,320,1120,320,1108,320C1095.4,320,1083,320,1071,320C1058.5,320,1046,320,1034,320C1021.5,320,1009,320,997,320C984.6,320,972,320,960,320C947.7,320,935,320,923,320C910.8,320,898,320,886,320C873.8,320,862,320,849,320C836.9,320,825,320,812,320C800,320,788,320,775,320C763.1,320,751,320,738,320C726.2,320,714,320,702,320C689.2,320,677,320,665,320C652.3,320,640,320,628,320C615.4,320,603,320,591,320C578.5,320,566,320,554,320C541.5,320,529,320,517,320C504.6,320,492,320,480,320C467.7,320,455,320,443,320C430.8,320,418,320,406,320C393.8,320,382,320,369,320C356.9,320,345,320,332,320C320,320,308,320,295,320C283.1,320,271,320,258,320C246.2,320,234,320,222,320C209.2,320,197,320,185,320C172.3,320,160,320,148,320C135.4,320,123,320,111,320C98.5,320,86,320,74,320C61.5,320,49,320,37,320C24.6,320,12,320,6,320L0,320Z"></path></svg>